<svg xmlns="http://www.w3.org/2000/svg" width="1100" height="620" viewBox="0 0 1100 620">
  <rect width="100%" height="100%" fill="white"/>
  <text x="550" y="38" text-anchor="middle" font-family="Arial" font-size="24" font-weight="bold">Current Snapshot: Top-10 Constituent Weight by Index</text>
  <text x="550" y="66" text-anchor="middle" font-family="Arial" font-size="14">Coverage differs across indices: most are top-10-only; Nifty IT and Sensex are full-constituent snapshots.</text>
  <line x1="180" y1="520" x2="1040" y2="520" stroke="#222"/>
  <line x1="180" y1="100" x2="180" y2="520" stroke="#222"/>
  <text x="120" y="105" text-anchor="end" font-family="Arial" font-size="12">100%</text>
  <text x="120" y="205" text-anchor="end" font-family="Arial" font-size="12">75%</text>
  <text x="120" y="310" text-anchor="end" font-family="Arial" font-size="12">50%</text>
  <text x="120" y="415" text-anchor="end" font-family="Arial" font-size="12">25%</text>
  <text x="120" y="523" text-anchor="end" font-family="Arial" font-size="12">0%</text>
  <line x1="175" y1="100" x2="1040" y2="100" stroke="#ddd"/>
  <line x1="175" y1="205" x2="1040" y2="205" stroke="#ddd"/>
  <line x1="175" y1="310" x2="1040" y2="310" stroke="#ddd"/>
  <line x1="175" y1="415" x2="1040" y2="415" stroke="#ddd"/>
  <rect x="210" y="294.5" width="58" height="225.5" fill="#4F81BD"/><text x="239" y="286" text-anchor="middle" font-family="Arial" font-size="12">53.68</text><text x="239" y="548" text-anchor="middle" font-family="Arial" font-size="12">Nifty 50</text>
  <rect x="305" y="388.0" width="58" height="132.0" fill="#4F81BD"/><text x="334" y="380" text-anchor="middle" font-family="Arial" font-size="12">31.42</text><text x="334" y="548" text-anchor="middle" font-family="Arial" font-size="12">Next 50</text>
  <rect x="400" y="335.8" width="58" height="184.2" fill="#4F81BD"/><text x="429" y="328" text-anchor="middle" font-family="Arial" font-size="12">43.85</text><text x="429" y="548" text-anchor="middle" font-family="Arial" font-size="12">Nifty 100</text>
  <rect x="495" y="391.9" width="58" height="128.1" fill="#4F81BD"/><text x="524" y="384" text-anchor="middle" font-family="Arial" font-size="12">30.49</text><text x="524" y="548" text-anchor="middle" font-family="Arial" font-size="12">Nifty 500</text>
  <rect x="590" y="156.3" width="58" height="363.7" fill="#C0504D"/><text x="619" y="148" text-anchor="middle" font-family="Arial" font-size="12">86.59</text><text x="619" y="548" text-anchor="middle" font-family="Arial" font-size="12">Bank</text>
  <rect x="685" y="100.1" width="58" height="419.9" fill="#9BBB59"/><text x="714" y="92" text-anchor="middle" font-family="Arial" font-size="12">99.98</text><text x="714" y="548" text-anchor="middle" font-family="Arial" font-size="12">IT</text>
  <rect x="780" y="134.9" width="58" height="385.1" fill="#C0504D"/><text x="809" y="127" text-anchor="middle" font-family="Arial" font-size="12">91.68</text><text x="809" y="548" text-anchor="middle" font-family="Arial" font-size="12">FMCG</text>
  <rect x="875" y="145.9" width="58" height="374.1" fill="#C0504D"/><text x="904" y="138" text-anchor="middle" font-family="Arial" font-size="12">89.06</text><text x="904" y="548" text-anchor="middle" font-family="Arial" font-size="12">Auto</text>
  <rect x="970" y="245.8" width="58" height="274.2" fill="#9BBB59"/><text x="999" y="238" text-anchor="middle" font-family="Arial" font-size="12">65.28</text><text x="999" y="548" text-anchor="middle" font-family="Arial" font-size="12">Sensex</text>
  <text x="180" y="595" font-family="Arial" font-size="12">Blue = broad/top-10-only; Red = sectoral/top-10-only; Green = full-constituent snapshot.</text>
</svg>
